<svg xmlns="http://www.w3.org/2000/svg" width="38" height="32" fill="none"><mask id="mask0_1_127" style="mask-type:luminance" maskUnits="userSpaceOnUse" x="0" y="0" width="38" height="32"><path d="M0 .98h37.823v30.984H0V.979Z" fill="#fff"/></mask><g mask="url('#mask0_1_127')"><path fill-rule="evenodd" clip-rule="evenodd" d="M20.875 30.6c-2.151 1.02-5.198 1.364-8.14 1.145-3.006-.224-5.891-1.037-7.605-2.276-4.672-3.37-5.286-7-4.724-10.625.594-3.818 3.615-7.719 9.089-8.375 5.364-.646 9.047 1.594 11.11 4.187 1.072 1.344 1.51 2.573 2.036 3.651.479.985 1.03 1.829 2.328 2.474 1.562.776 3.281.579 3.948-.682.067-.125.114-.255.15-.39-.729-.12-1.296-.584-1.734-1.193-.61-.844-.979-1.964-1.312-2.63-.474-.948-1.042-1.459-1.354-1.886-.297-.411-.412-.765-.256-1.198.094-.265.323-.495.677-.625.61-.224 1.646-.177 2.688.334 1.302.635 1.89 1.364 2.266 1.828.088.109.198.224.255.28a.755.755 0 0 0 .062-.067c.104-.12.214-.276.344-.458.443-.615 1.094-1.464 2.287-2.005.953-.433 2.276-.35 3.244-.136.698.146 1.214.365 1.35.48a.683.683 0 0 1 .187.302c.041.166.052.421.005.74-.125.89-.651 2.353-1.385 3.452-.953 1.422-1.76 1.86-2.87 2.302-1.1 4.938-3.255 7.64-6.818 9.98l.104.15c.282.443.334.896.032 1.386-.245.39-.72.76-1.433.932-.948.23-2.37.104-4.218-.885a3.385 3.385 0 0 1-.313-.193Zm5.297-1.933c2.838-1.839 4.755-3.901 5.943-7.193a3.226 3.226 0 0 0-.13.23c-1.146 2.015-2.714 3.609-4.261 4.562-.75.469-1.818.765-2.77.786-.24.01-.475 0-.699-.031.23.276.51.547.86.812.375.287.744.563 1.057.834Zm2.911-9.709c-.062-.427-.255-.885-.567-1.364a.364.364 0 0 1 .114-.51.37.37 0 0 1 .51.109c.787 1.224.912 2.36.433 3.255-.839 1.583-2.974 1.969-4.938.995-1.474-.735-2.114-1.688-2.661-2.813-.505-1.036-.922-2.224-1.948-3.515-1.943-2.433-5.406-4.521-10.443-3.917-5.078.615-7.896 4.219-8.442 7.755-.115.74-.177 1.48-.157 2.219 0 0 0 .005.006.005 1.822 1.719 6.099 3.766 9.562 4.63 4.047 1.006 7.698.454 7.698.454a.364.364 0 0 1 .385.203s.5 1.036 1.24 2.052c.474.65 1.052 1.297 1.661 1.625 1.625.87 2.86 1.02 3.693.817.48-.114.813-.338.98-.604.171-.286.051-.536-.173-.791-.328-.375-.854-.74-1.375-1.141-1.192-.917-1.687-1.89-1.974-2.77a.37.37 0 0 1 .24-.464.368.368 0 0 1 .469.24c.067.213.15.431.26.655.328.183.787.245 1.282.235.822-.021 1.744-.271 2.395-.677 1.453-.901 2.922-2.406 4-4.302.657-1.157 1.063-1.828 1.026-3.985a.36.36 0 0 1 .36-.37.368.368 0 0 1 .38.36c.005.515-.005.953-.036 1.333a.37.37 0 0 1 .156-.125c.99-.39 1.708-.765 2.552-2.031.672-1.005 1.156-2.339 1.27-3.146a1.95 1.95 0 0 0 .016-.406c-.146-.089-.515-.198-.974-.297-.838-.177-1.968-.287-2.78.083-1.235.563-1.798 1.505-2.194 2.042a2.7 2.7 0 0 1-.349.406.756.756 0 0 1-.359.172c-.26.047-.505-.068-.76-.364-.339-.386-.828-1.172-2.193-1.839-.708-.344-1.412-.448-1.906-.354a.814.814 0 0 0-.329.12c-.046.03-.088.062-.104.109-.047.125-.02.23.047.344.063.12.162.245.276.38.344.417.828.943 1.256 1.786.27.537.557 1.386.99 2.125.343.594.775 1.125 1.405 1.276Zm-10.453 4c.886-.088 1.667.51 1.755 1.329.084.817-.557 1.567-1.448 1.656-.885.094-1.671-.505-1.755-1.323-.083-.823.558-1.568 1.448-1.662Zm.047.495c-.604.063-1.062.558-1.005 1.115.062.557.61.948 1.219.885.604-.062 1.057-.557 1.005-1.114-.063-.558-.61-.948-1.219-.886Zm-3.969-.646c.51-.218 1.14.115 1.412.74.27.63.078 1.313-.438 1.531-.505.219-1.14-.114-1.411-.745-.266-.625-.073-1.307.437-1.526Zm-13.64-.588c.078.573.218 1.14.427 1.708 2.234 1.917 5.604 3.896 9.099 4.589 3.729.734 7.192-.037 8.213-.25-.328-.51-.578-.974-.718-1.24-.938.104-4.178.38-7.72-.505-3.25-.807-7.187-2.646-9.301-4.302Zm.864 2.703c.703 1.344 1.854 2.667 3.63 3.948 1.63 1.177 4.375 1.922 7.224 2.14 2.667.193 5.428-.078 7.454-.937a8.264 8.264 0 0 1-.964-1.12c-.063-.083-.115-.161-.172-.245-.531.079-4.4 1.115-8.61.287-3.197-.63-6.301-2.318-8.562-4.073Zm8.969-15.396a.363.363 0 0 1-.37-.156s-.364-.531-.88-.974c-.302-.26-.656-.505-1.02-.537-.537-.041-.808.22-1.105.438-.432.318-.88.594-1.724.39a1.392 1.392 0 0 1-.687-.442c-.422-.469-.698-1.302-.422-2.234.364-1.22 1.437-1.803 2.53-1.875a1.878 1.878 0 0 1-.082-.735 2.482 2.482 0 0 1 1.083-1.9c.786-.522 1.698-.5 2.49-.183.776.307 1.416.911 1.682 1.515.281.651.411 1.198.37 1.829.78-.365 1.474-.6 2.13-.573.646.02 1.458.24 2.015.916.547.662.605 1.506.36 2.157-.172.468-.485.833-.87 1-.786.349-1.307.177-1.828-.079-.375-.182-.745-.432-1.313-.39-.364.031-.729.297-1.046.588-.542.49-.938 1.089-.938 1.089a.375.375 0 0 1-.375.156ZM8.078 4.188c.203.03.401.088.589.161 1.172.453 1.823 1.48 2.15 2.578.058.193.11.432.157.677.276-.557.661-1.375.807-1.849.344-1.104.318-1.75-.068-2.63-.197-.453-.692-.885-1.275-1.12-.573-.229-1.235-.265-1.797.11-.485.323-.73.854-.766 1.333-.016.276.036.542.182.714.01.01.016.015.021.026Zm4.531 1.375a3.92 3.92 0 0 1-.12.411c-.13.438-.463 1.156-.734 1.724.438-.385.953-.703 1.443-.74.604-.046 1.042.136 1.443.339.437.214.812.48 1.453.193.218-.1.385-.318.479-.578.161-.438.13-1-.235-1.443-.4-.485-1.005-.625-1.473-.64-.678-.027-1.396.296-2.256.734Zm-2.317 2.411c-.058-.302-.12-.599-.188-.838-.26-.886-.76-1.735-1.703-2.1-1.057-.406-2.599-.14-2.995 1.183-.161.557-.062 1.057.156 1.396.115.182.266.317.417.354.682.167.969-.177 1.328-.432.35-.25.75-.459 1.38-.412.51.037 1.027.344 1.454.714.052.041.104.088.15.135Z" fill="#000"/></g></svg>