
  <svg style="" xmlns="http://www.w3.org/2000/svg" width="38" height="32" viewBox="0 0 38 32" fill="none">
<mask id="mask0_1_127" style="mask-type:luminance" maskUnits="userSpaceOnUse" x="0" y="0" width="38" height="32">
<path d="M0 0.979248H37.8229V31.9636H0V0.979248Z" fill="white"/>
</mask>
<g mask="url(#mask0_1_127)">
<path fill-rule="evenodd" clip-rule="evenodd" d="M20.875 30.5991C18.7239 31.6199 15.6771 31.9636 12.7344 31.7449C9.72915 31.5209 6.84373 30.7084 5.13019 29.4688C0.458318 26.0991 -0.156266 22.4688 0.406235 18.8438C0.999984 15.0261 4.02082 11.1251 9.49478 10.4688C14.8594 9.82301 18.5417 12.0626 20.6042 14.6563C21.6771 16.0001 22.1146 17.2293 22.6406 18.3074C23.1198 19.2918 23.6719 20.1355 24.9687 20.7813C26.5312 21.5574 28.25 21.3595 28.9167 20.0991C28.9844 19.9741 29.0312 19.8438 29.0677 19.7084C28.3385 19.5886 27.7708 19.1251 27.3333 18.5157C26.7239 17.672 26.3542 16.5522 26.0208 15.8855C25.5469 14.9376 24.9792 14.4272 24.6667 14.0001C24.3698 13.5886 24.2552 13.2345 24.4114 12.8022C24.5052 12.5366 24.7344 12.3074 25.0885 12.1772C25.6979 11.9532 26.7344 12.0001 27.776 12.5105C29.0781 13.1459 29.6667 13.8751 30.0417 14.3386C30.1302 14.448 30.2396 14.5626 30.2969 14.6199C30.3177 14.5991 30.3437 14.573 30.3594 14.5522C30.4635 14.4324 30.5729 14.2761 30.7031 14.0938C31.1458 13.4793 31.7969 12.6303 32.9896 12.0886C33.9427 11.6563 35.2656 11.7397 36.2344 11.9532C36.9323 12.0991 37.4479 12.3178 37.5833 12.4324C37.6562 12.5001 37.7292 12.5991 37.7708 12.7345C37.8125 12.9011 37.8229 13.1563 37.776 13.4741C37.651 14.3647 37.125 15.8282 36.3906 16.9272C35.4375 18.3491 34.6302 18.7866 33.5208 19.2293C32.4219 24.1668 30.2656 26.8699 26.7031 29.2084C26.7396 29.2605 26.776 29.3126 26.8073 29.3595C27.0885 29.8022 27.1406 30.2553 26.8385 30.7449C26.5937 31.1355 26.1198 31.5053 25.4062 31.6772C24.4583 31.9063 23.0364 31.7813 21.1875 30.7918C21.0833 30.7345 20.9792 30.672 20.875 30.5991ZM26.1719 28.6668C29.0104 26.8282 30.9271 24.7657 32.1146 21.4741C32.0677 21.547 32.026 21.6251 31.9844 21.7032C30.8385 23.7188 29.2708 25.3126 27.7239 26.2657C26.9739 26.7345 25.9062 27.0313 24.9531 27.0522C24.7135 27.0626 24.4792 27.0522 24.2552 27.0209C24.4844 27.297 24.7656 27.5678 25.1146 27.8334C25.4896 28.1199 25.8594 28.3959 26.1719 28.6668ZM29.0833 18.9584C29.0208 18.5313 28.8281 18.073 28.5156 17.5938C28.4062 17.4168 28.4531 17.1876 28.6302 17.0834C28.8021 16.9741 29.0312 17.0209 29.1406 17.1928C29.9271 18.4168 30.0521 19.5522 29.5729 20.448C28.7344 22.0313 26.5989 22.4168 24.6354 21.4428C23.1614 20.7084 22.5208 19.7553 21.9739 18.6303C21.4687 17.5938 21.0521 16.4063 20.026 15.1147C18.0833 12.6824 14.6198 10.5938 9.58332 11.198C4.50519 11.8126 1.68748 15.4168 1.14061 18.9532C1.02603 19.6928 0.963527 20.4324 0.98436 21.172C0.98436 21.172 0.984359 21.1772 0.989568 21.1772C2.81248 22.8959 7.08853 24.9428 10.5521 25.8074C14.5989 26.8126 18.25 26.2605 18.25 26.2605C18.4062 26.2345 18.5677 26.3178 18.6354 26.4636C18.6354 26.4636 19.1354 27.5001 19.875 28.5157C20.3489 29.1668 20.9271 29.8126 21.5364 30.1407C23.1614 31.0105 24.3958 31.1616 25.2292 30.9584C25.7083 30.8438 26.0417 30.6199 26.2083 30.3543C26.3802 30.0678 26.2604 29.8178 26.0364 29.5626C25.7083 29.1876 25.1823 28.823 24.6614 28.422C23.4687 27.5053 22.9739 26.5313 22.6875 25.6511C22.625 25.4584 22.7344 25.2501 22.9271 25.1876C23.1198 25.1199 23.3333 25.2293 23.3958 25.4272C23.4635 25.6407 23.5469 25.8595 23.6562 26.0834C23.9844 26.2657 24.4427 26.3282 24.9375 26.3178C25.7604 26.297 26.6823 26.047 27.3333 25.6407C28.7864 24.7397 30.2552 23.2345 31.3333 21.3386C31.9896 20.1824 32.3958 19.5105 32.3594 17.3543C32.3542 17.1511 32.5156 16.9845 32.7187 16.9845C32.9271 16.9793 33.0937 17.1407 33.0989 17.3438C33.1042 17.8595 33.0937 18.297 33.0625 18.6772C33.0989 18.6251 33.1562 18.5782 33.2187 18.5522C34.2083 18.1616 34.9271 17.7866 35.7708 16.5209C36.4427 15.5157 36.9271 14.1824 37.0417 13.3751C37.0677 13.2136 37.0625 13.0313 37.0573 12.9688C36.9114 12.8803 36.5417 12.7709 36.0833 12.672C35.2448 12.4949 34.1146 12.3855 33.3021 12.7553C32.0677 13.3178 31.5052 14.2605 31.1094 14.797C30.9844 14.9688 30.8646 15.1095 30.7604 15.2032C30.6354 15.3022 30.5156 15.3595 30.401 15.3751C30.1406 15.422 29.8958 15.3074 29.6406 15.0105C29.3021 14.6251 28.8125 13.8386 27.4479 13.172C26.7396 12.8282 26.0364 12.7241 25.5417 12.8178C25.4114 12.8386 25.2969 12.8803 25.2135 12.9376C25.1667 12.9688 25.125 13.0001 25.1094 13.047C25.0625 13.172 25.0885 13.2761 25.1562 13.3907C25.2187 13.5105 25.3177 13.6355 25.4323 13.7709C25.776 14.1876 26.2604 14.7136 26.6875 15.5574C26.9583 16.0938 27.2448 16.9428 27.6771 17.6824C28.0208 18.2761 28.4531 18.8074 29.0833 18.9584ZM18.6302 22.9584C19.5156 22.8699 20.2969 23.4688 20.3854 24.2866C20.4687 25.1043 19.8281 25.8543 18.9375 25.9428C18.0521 26.0366 17.2656 25.4376 17.1823 24.6199C17.0989 23.797 17.7396 23.0522 18.6302 22.9584ZM18.6771 23.4532C18.0729 23.5157 17.6146 24.0105 17.6719 24.5678C17.7344 25.1251 18.2812 25.5157 18.8906 25.4532C19.4948 25.3907 19.9479 24.8959 19.8958 24.3386C19.8333 23.7813 19.2864 23.3907 18.6771 23.4532ZM14.7083 22.8074C15.2187 22.5886 15.8489 22.922 16.1198 23.547C16.3906 24.1772 16.1979 24.8595 15.6823 25.0782C15.1771 25.297 14.5417 24.9636 14.2708 24.3334C14.0052 23.7084 14.1979 23.0261 14.7083 22.8074ZM1.06769 22.2188C1.14582 22.7918 1.28644 23.3595 1.49478 23.9272C3.72915 25.8438 7.09894 27.823 10.5937 28.5157C14.3229 29.2501 17.7864 28.4793 18.8073 28.2657C18.4792 27.7553 18.2292 27.2918 18.0885 27.0261C17.151 27.1303 13.9114 27.4063 10.3698 26.5209C7.11978 25.7136 3.18228 23.8751 1.06769 22.2188ZM1.93228 24.922C2.6354 26.2657 3.78644 27.5886 5.56248 28.8699C7.19269 30.047 9.93748 30.7918 12.7864 31.0105C15.4531 31.2032 18.2135 30.9324 20.2396 30.073C19.8906 29.7397 19.5625 29.3491 19.276 28.9532C19.2135 28.8699 19.1614 28.7918 19.1042 28.7084C18.5729 28.7866 14.7031 29.823 10.4948 28.9949C7.29686 28.3647 4.19269 26.6772 1.93228 24.922ZM10.901 9.52614C10.7604 9.55218 10.6146 9.49489 10.5312 9.36989C10.5312 9.36989 10.1667 8.83864 9.65103 8.39593C9.34894 8.13551 8.99478 7.89072 8.63019 7.85947C8.09373 7.8178 7.8229 8.07822 7.52603 8.29697C7.09373 8.61468 6.64582 8.89072 5.80207 8.68759C5.56769 8.6303 5.3229 8.47926 5.11457 8.24489C4.69269 7.77614 4.41665 6.9428 4.69269 6.01051C5.05728 4.79176 6.13019 4.20843 7.22394 4.13551C7.15103 3.91676 7.11978 3.66155 7.14061 3.40114C7.17707 2.71884 7.53644 1.95843 8.22394 1.50009C9.0104 0.979261 9.92186 1.00009 10.7135 1.3178C11.4896 1.62509 12.1302 2.22926 12.3958 2.83343C12.6771 3.48447 12.8073 4.03134 12.7656 4.66155C13.5469 4.29697 14.2396 4.06259 14.8958 4.08864C15.5417 4.10947 16.3542 4.32822 16.9114 5.0053C17.4583 5.66676 17.5156 6.51051 17.2708 7.16155C17.0989 7.6303 16.7864 7.99489 16.401 8.16155C15.6146 8.51051 15.0937 8.33864 14.5729 8.08343C14.1979 7.90114 13.8281 7.65114 13.2604 7.6928C12.8958 7.72405 12.5312 7.98968 12.2135 8.28135C11.6719 8.77093 11.276 9.36989 11.276 9.36989C11.1875 9.49489 11.0417 9.55218 10.901 9.52614ZM8.07811 4.18759C8.28124 4.21884 8.47915 4.27614 8.66665 4.34905C9.83853 4.80218 10.4896 5.82822 10.8177 6.92718C10.875 7.11989 10.9271 7.35947 10.9739 7.60426C11.25 7.04697 11.6354 6.22926 11.7812 5.7553C12.125 4.65114 12.0989 4.0053 11.7135 3.12509C11.5156 2.67197 11.0208 2.23968 10.4375 2.0053C9.86457 1.77614 9.20311 1.73968 8.64061 2.11468C8.15624 2.43759 7.91144 2.96884 7.87498 3.44801C7.85936 3.72405 7.91144 3.98968 8.05728 4.16155C8.06769 4.17197 8.0729 4.17718 8.07811 4.18759ZM12.6094 5.56259C12.5781 5.6928 12.5417 5.82822 12.4896 5.97405C12.3594 6.41155 12.026 7.1303 11.7552 7.69801C12.1927 7.31259 12.7083 6.99489 13.1979 6.95843C13.8021 6.91155 14.2396 7.09384 14.6406 7.29697C15.0781 7.51051 15.4531 7.77614 16.0937 7.48968C16.3125 7.39072 16.4792 7.17197 16.5729 6.91155C16.7344 6.47405 16.7031 5.91155 16.3385 5.46884C15.9375 4.98447 15.3333 4.84384 14.8646 4.82822C14.1875 4.80218 13.4687 5.12509 12.6094 5.56259ZM10.2917 7.97405C10.2344 7.67197 10.1719 7.37509 10.1042 7.13551C9.84373 6.25009 9.34373 5.40114 8.40103 5.03655C7.34373 4.6303 5.80207 4.89593 5.40623 6.21884C5.24478 6.77613 5.34373 7.27614 5.56248 7.61468C5.67707 7.79697 5.82811 7.93239 5.97915 7.96884C6.66144 8.13551 6.9479 7.79176 7.30728 7.53655C7.65624 7.28655 8.05728 7.07822 8.68748 7.12509C9.1979 7.16155 9.71353 7.46884 10.1406 7.83864C10.1927 7.8803 10.2448 7.92718 10.2917 7.97405Z" fill="black"/>
</g>
</svg>
